<svg height="512pt" viewBox="0 0 512 512" width="512pt" xmlns="http://www.w3.org/2000/svg"><path d="m512 256c0 141.386719-114.613281 256-256 256s-256-114.613281-256-256 114.613281-256 256-256 256 114.613281 256 256zm0 0" fill="#b3e529"/><path d="m512 256c0 26.050781-3.890625 51.191406-11.128906 74.871094-32.011719 104.847656-129.542969 181.128906-244.871094 181.128906-104.558594 0-194.488281-62.699219-234.230469-152.550781-14-31.628907-21.769531-66.628907-21.769531-103.449219 0-46.21875 12.25-89.570312 33.679688-127 44.121093 77.070312 127.160156 129 222.320312 129s178.210938-51.929688 222.320312-129c21.429688 37.429688 33.679688 80.78125 33.679688 127zm0 0" fill="#95d600"/><path d="m203.46875 411.703125h105.0625v78.097656h-105.0625zm0 0" fill="#323b5a"/><path d="m354.738281 492.261719c-30.386719 12.71875-63.75 19.738281-98.738281 19.738281-35 0-68.359375-7.03125-98.738281-19.738281 5.410156-6.902344 13.828125-11.332031 23.277343-11.332031h150.921876c9.449218 0 17.867187 4.429687 23.277343 11.332031zm0 0" fill="#474f6f"/><path d="m441.929688 189.890625v198.945313c0 13.308593-10.800782 24.109374-24.109376 24.109374h-323.640624c-13.308594 0-24.109376-10.800781-24.109376-24.109374v-198.945313c0-13.320313 10.800782-24.113281 24.109376-24.113281h323.640624c13.308594 0 24.109376 10.789062 24.109376 24.113281zm0 0" fill="#474f6f"/><path d="m441.929688 189.890625v198.945313c0 13.308593-10.800782 24.109374-24.109376 24.109374h-161.820312v-247.167968h161.820312c13.308594 0 24.109376 10.789062 24.109376 24.113281zm0 0" fill="#535e89"/><path d="m424.308594 203.230469v175.03125c0 7.886719-6.398438 14.289062-14.289063 14.289062h-308.039062c-7.890625 0-14.289063-6.402343-14.289063-14.289062v-175.03125c0-7.890625 6.398438-14.289063 14.289063-14.289063h308.039062c7.890625 0 14.289063 6.398438 14.289063 14.289063zm0 0" fill="#d0f6ff"/><path d="m424.308594 203.230469v175.03125c0 7.886719-6.398438 14.289062-14.289063 14.289062h-154.417969v-203.609375h154.417969c7.890625 0 14.289063 6.398438 14.289063 14.289063zm0 0" fill="#fff"/><path d="m354.390625 227.292969v120.460937c0 6.386719-5.179687 11.578125-11.582031 11.578125h-189.867188c-6.390625 0-11.570312-5.191406-11.570312-11.578125v-120.460937c0-6.390625 5.179687-11.570313 11.570312-11.570313h189.867188c6.402344 0 11.582031 5.179688 11.582031 11.570313zm0 0" fill="#474f6f"/><path d="m354.390625 227.292969v120.460937c0 6.386719-5.179687 11.578125-11.582031 11.578125h-86.808594v-143.609375h86.808594c6.402344 0 11.582031 5.179688 11.582031 11.570313zm0 0" fill="#535e89"/><path d="m159.699219 282.253906h95.957031v12.460938h-95.957031zm0 0" fill="#fff"/><path d="m159.699219 303.609375h95.957031v12.460937h-95.957031zm0 0" fill="#fff"/><path d="m159.699219 324.960938h95.957031v12.460937h-95.957031zm0 0" fill="#fff"/><path d="m354.390625 227.292969v30.320312h-213.019531v-30.320312c0-6.390625 5.179687-11.570313 11.570312-11.570313h189.867188c6.402344 0 11.582031 5.179688 11.582031 11.570313zm0 0" fill="#0066e8"/><path d="m354.390625 227.292969v30.320312h-98.390625v-41.890625h86.808594c6.402344 0 11.582031 5.179688 11.582031 11.570313zm0 0" fill="#178cda"/><path d="m172.484375 237.261719c0 4.957031-4.015625 8.976562-8.972656 8.976562s-8.976563-4.019531-8.976563-8.976562 4.019532-8.972657 8.976563-8.972657 8.972656 4.015626 8.972656 8.972657zm0 0" fill="#ebf0f3"/><path d="m223.945312 237.261719c0 4.957031-4.019531 8.976562-8.976562 8.976562s-8.976562-4.019531-8.976562-8.976562 4.019531-8.972657 8.976562-8.972657 8.976562 4.015626 8.976562 8.972657zm0 0" fill="#ebf0f3"/><path d="m198.308594 237.261719c0 4.957031-4.019532 8.976562-8.976563 8.976562s-8.972656-4.019531-8.972656-8.976562 4.015625-8.972657 8.972656-8.972657 8.976563 4.015626 8.976563 8.972657zm0 0" fill="#ebf0f3"/><path d="m400.21875 371.46875h-71.753906c-4.863282 0-8.816406-3.953125-8.816406-8.8125v-96.347656c0-4.859375 3.953124-8.816406 8.816406-8.816406h71.753906c4.859375 0 8.8125 3.957031 8.8125 8.816406v96.347656c0 4.859375-3.953125 8.8125-8.8125 8.8125zm0 0" fill="#323b5a"/><path d="m401.089844 272.441406v68.3125l-21.210938 21.207032h-46.847656c-3 0-5.441406-2.429688-5.441406-5.4375v-84.082032c0-3.007812 2.441406-5.4375 5.441406-5.4375h62.617188c3.011718 0 5.441406 2.429688 5.441406 5.4375zm0 0" fill="#d0f6ff"/><path d="m401.089844 272.441406v68.3125l-21.210938 21.207032h-16.550781v-94.957032h32.320313c3.011718 0 5.441406 2.429688 5.441406 5.4375zm0 0" fill="#fff"/><path d="m379.882812 346.191406v15.769532l21.207032-21.207032h-15.769532c-3.003906 0-5.4375 2.433594-5.4375 5.4375zm0 0" fill="#178cda"/><g fill="#535e89"><path d="m347.160156 288.855469h38.597656v6.015625h-38.597656zm0 0"/><path d="m347.160156 300.121094h38.597656v6.019531h-38.597656zm0 0"/><path d="m335.707031 288.855469h6.015625v6.015625h-6.015625zm0 0"/><path d="m335.707031 300.121094h6.015625v6.019531h-6.015625zm0 0"/><path d="m335.707031 311.390625h6.015625v6.015625h-6.015625zm0 0"/><path d="m335.707031 322.65625h6.015625v6.019531h-6.015625zm0 0"/><path d="m347.160156 311.472656h38.597656v6.019532h-38.597656zm0 0"/><path d="m347.160156 323.496094h38.597656v6.019531h-38.597656zm0 0"/></g><path d="m301.632812 337.925781-5.609374 9.308594-2.308594 3.824219c-.824219 1.367187-2.804688 1.367187-3.632813 0l-2.304687-3.824219-5.613282-9.308594v-8.269531l9.734376-1.773438 9.238281 1.332032zm0 0" fill="#f5f3f6"/><path d="m301.625 273.269531h-19.453125c.199219-6.101562 4.476563-10.972656 9.726563-10.972656 2.691406 0 5.121093 1.277344 6.882812 3.34375 1.679688 1.96875 2.746094 4.65625 2.84375 7.628906zm0 0" fill="#f75454"/><path d="m289.066406 273.269531v62.199219c-.574218.660156-.917968 1.515625-.917968 2.457031 0-1.652343-1.339844-2.992187-2.992188-2.992187-1.65625 0-2.996094 1.339844-2.996094 2.992187v-64.207031c0-.148438.003906-.300781.011719-.449219zm0 0" fill="#ed771b"/><path d="m301.632812 273.71875v64.207031c0-1.65625-1.339843-2.992187-2.996093-2.992187-1.652344 0-2.992188 1.335937-2.992188 2.992187 0-.941406-.34375-1.796875-.917969-2.457031v-62.199219h6.898438c.007812.148438.007812.300781.007812.449219zm0 0" fill="#ffe955"/><path d="m295.644531 273.269531v64.65625c0-.941406-.34375-1.796875-.917969-2.457031-.6875-.789062-1.703124-1.289062-2.832031-1.289062-1.125 0-2.140625.496093-2.828125 1.289062-.574218.660156-.917968 1.515625-.917968 2.457031v-64.65625zm0 0" fill="#ffd112"/><path d="m301.632812 273.71875v3.273438h-19.46875v-3.273438c0-.152344 0-.300781.007813-.449219h19.453125c.007812.148438.007812.300781.007812.449219zm0 0" fill="#393845"/><path d="m296.019531 347.234375-2.304687 3.824219c-.828125 1.367187-2.808594 1.367187-3.632813 0l-2.308593-3.824219c1.191406-.761719 2.605468-1.203125 4.121093-1.203125 1.519531 0 2.9375.441406 4.125 1.203125zm0 0" fill="#323b5a"/></svg>